<svg width="24" height="24" viewBox="0 0 24 24" fill="none" xmlns="http://www.w3.org/2000/svg">
<path fill-rule="evenodd" clip-rule="evenodd" d="M6.91189 23.0122H16.0989C17.9314 23.0102 19.6881 22.2812 20.984 20.9854C22.2798 19.6897 23.009 17.9329 23.0111 16.1003V6.91189C23.009 5.07935 22.2798 3.32255 20.984 2.02679C19.6881 0.731016 17.9314 0.00207195 16.0989 0H6.91189C5.07939 0.00207214 3.3222 0.731005 2.02642 2.02679C0.730641 3.32257 0.00207214 5.07939 0 6.91189V16.1003C0.00207214 17.9328 0.730641 19.6897 2.02642 20.9854C3.3222 22.2812 5.07939 23.0102 6.91189 23.0122ZM3.55661 3.55734C4.4466 2.66756 5.65341 2.16714 6.91189 2.16586H16.0989C17.3574 2.16714 18.5638 2.66756 19.4538 3.55734C20.3438 4.44712 20.8448 5.65341 20.8464 6.91189V16.1003C20.8449 17.3589 20.3442 18.5654 19.4542 19.4552C18.5642 20.3451 17.3574 20.8454 16.0989 20.8467H6.91189C5.65334 20.8454 4.44661 20.3451 3.55661 19.4552C2.66661 18.5654 2.16588 17.3589 2.1644 16.1003V6.91189C2.16598 5.65341 2.66662 4.44712 3.55661 3.55734ZM17.5972 4.10919C17.3303 4.10919 17.0698 4.1881 16.8479 4.33637C16.6261 4.48464 16.4531 4.69563 16.351 4.94218C16.2489 5.18874 16.2221 5.45993 16.2742 5.72166C16.3263 5.98339 16.4546 6.22363 16.6433 6.4123C16.8321 6.60098 17.0726 6.72945 17.3344 6.78147C17.5961 6.83349 17.8673 6.80683 18.1138 6.70465C18.3604 6.60248 18.5711 6.42962 18.7193 6.2077C18.8675 5.98577 18.9465 5.72493 18.9465 5.45807C18.9464 5.10031 18.8045 4.75715 18.5514 4.50421C18.2984 4.25126 17.955 4.10919 17.5972 4.10919ZM11.6001 5.83984C10.4793 5.83984 9.38386 6.17214 8.45197 6.7948C7.52009 7.41747 6.79365 8.30275 6.36475 9.33821C5.93585 10.3737 5.8239 11.5131 6.04255 12.6123C6.2612 13.7115 6.80063 14.7211 7.59313 15.5136C8.38563 16.3061 9.39555 16.8459 10.4948 17.0645C11.594 17.2832 12.7334 17.1709 13.7689 16.742C14.8043 16.3131 15.6892 15.5866 16.3119 14.6547C16.9346 13.7229 17.2669 12.6274 17.2669 11.5066C17.265 10.0043 16.6676 8.56414 15.6052 7.50183C14.5429 6.43952 13.1024 5.84172 11.6001 5.83984ZM11.6001 15.1371C10.882 15.1373 10.1803 14.9243 9.58314 14.5255C8.98602 14.1267 8.52043 13.5597 8.24554 12.8963C7.97066 12.2329 7.89873 11.5032 8.03875 10.7989C8.17878 10.0946 8.52457 9.44733 9.0323 8.93955C9.54003 8.43176 10.187 8.08609 10.8913 7.946C11.5955 7.8059 12.3256 7.87761 12.989 8.15242C13.6524 8.42724 14.2193 8.89294 14.6182 9.49002C15.0172 10.0871 15.23 10.7889 15.2299 11.507C15.2288 12.4693 14.8462 13.3921 14.1657 14.0726C13.4853 14.7531 12.5624 15.136 11.6001 15.1371Z" fill="#7797BB"/>
</svg>
