<svg width="24" height="21" viewBox="0 0 24 21" fill="none" xmlns="http://www.w3.org/2000/svg">
<path d="M22.91 2.92265C22.1663 3.25881 21.3848 3.49331 20.5846 3.62053C20.9585 3.55452 21.5078 2.84164 21.7279 2.55332C22.0722 2.1153 22.3341 1.6121 22.4998 1.07096C22.5199 1.0292 22.5347 0.97578 22.4947 0.943966C22.4749 0.935129 22.4531 0.931221 22.4316 0.933092C22.4102 0.934962 22.3897 0.942303 22.3715 0.954451C21.5 1.4441 20.574 1.81721 19.6147 2.06516C19.5816 2.07586 19.5463 2.07684 19.5129 2.06749C19.4795 2.05813 19.4494 2.03891 19.4258 2.01234C19.3517 1.91953 19.2706 1.83271 19.1839 1.75292C18.7858 1.3917 18.3348 1.10069 17.8484 0.891149C17.1993 0.614442 16.4993 0.495622 15.8004 0.543568C15.1215 0.592044 14.4598 0.789012 13.8572 1.12183C13.2528 1.45412 12.7192 1.91327 12.2894 2.4706C11.8433 3.04829 11.5238 3.72239 11.3534 4.44501C11.2069 5.1297 11.1896 5.83814 11.3032 6.52972C11.3179 6.64624 11.3085 6.66214 11.208 6.64623C7.422 6.05289 4.2829 4.62581 1.73483 1.56806C1.62418 1.43563 1.56509 1.43578 1.47445 1.57854C0.359222 3.33827 0.900019 6.1655 2.29321 7.55499C2.47864 7.74031 2.67087 7.92541 2.87519 8.09403C2.23799 8.04356 1.61672 7.86047 1.04737 7.55499C0.936717 7.48102 0.880909 7.52393 0.870712 7.65596C0.863891 7.84702 0.874035 8.03815 0.900954 8.22724C1.01266 9.1251 1.34895 9.97579 1.87498 10.6921C2.40101 11.4085 3.0982 11.9648 3.89531 12.3046C4.08997 12.3937 4.29335 12.4594 4.502 12.5003C3.91165 12.6246 3.30571 12.6444 2.70922 12.5586C2.57855 12.5327 2.52881 12.6005 2.57866 12.733C3.36759 14.997 5.07108 15.6708 6.3453 16.0546C6.51638 16.086 6.68724 16.0858 6.85832 16.1284C6.84812 16.1447 6.83789 16.1447 6.82807 16.1606C6.40509 16.8395 4.93995 17.3451 4.25564 17.596C3.00449 18.0661 1.67135 18.2454 0.348111 18.1222C0.138132 18.0896 0.0934855 18.0924 0.0368365 18.1222C-0.0205678 18.1596 0.0293512 18.2129 0.0969523 18.2698C0.36358 18.4551 0.634465 18.6195 0.910912 18.7782C1.74071 19.244 2.61644 19.6127 3.52244 19.878C8.216 21.2432 13.5032 20.2401 17.0271 16.5536C19.795 13.6581 20.7661 9.66504 20.7661 5.66718C20.7661 5.5101 20.9418 5.42406 21.046 5.34135C21.7484 4.76829 22.3671 4.08989 22.883 3.3281C22.9643 3.21811 23.0075 3.0822 23.0051 2.94285V2.92265C23.0044 2.85664 23.0032 2.87572 22.91 2.92265Z" fill="#7797BB"/>
</svg>
