<svg width="24" height="23" viewBox="0 0 24 23" fill="none" xmlns="http://www.w3.org/2000/svg">
<path d="M21.5828 5.76752C20.2702 5.76752 19.0591 5.33267 18.0865 4.5991C16.9711 3.75816 16.1697 2.52461 15.8867 1.10283C15.8166 0.751541 15.7789 0.389021 15.7753 0.0175171H12.0257V10.2633L12.0212 15.8754C12.0212 17.3758 11.0441 18.648 9.68972 19.0954C9.29666 19.2252 8.87214 19.2868 8.43011 19.2625C7.86589 19.2315 7.33716 19.0612 6.87761 18.7863C5.89966 18.2014 5.23662 17.1404 5.21865 15.9266C5.19035 14.0295 6.72398 12.4829 8.61968 12.4829C8.99388 12.4829 9.35326 12.544 9.68972 12.6549V9.85451V8.84781C9.33484 8.79525 8.97367 8.76785 8.60845 8.76785C6.53351 8.76785 4.59289 9.63035 3.2057 11.1842C2.15722 12.3585 1.52832 13.8566 1.43128 15.4275C1.30416 17.4912 2.05929 19.453 3.52375 20.9003C3.73892 21.1128 3.96488 21.31 4.20117 21.492C5.45673 22.4582 6.99171 22.982 8.60845 22.982C8.97367 22.982 9.33484 22.9551 9.68972 22.9025C11.2 22.6788 12.5935 21.9875 13.6932 20.9003C15.0444 19.5648 15.791 17.7918 15.7991 15.9046L15.7798 7.52396C16.4244 8.02125 17.1292 8.43273 17.8857 8.75213C19.0622 9.24851 20.3097 9.50008 21.5936 9.49963V6.77691V5.76662C21.5945 5.76752 21.5837 5.76752 21.5828 5.76752Z" fill="#7797BB"/>
</svg>
