<svg width="23" height="23" viewBox="0 0 23 23" fill="none" xmlns="http://www.w3.org/2000/svg">
<path fill-rule="evenodd" clip-rule="evenodd" d="M1.65001 16.8476L0.00585938 22.9818L6.17177 21.3304C8.5735 22.6324 11.3641 23.0246 14.0317 22.435C16.6993 21.8453 19.0647 20.3134 20.6939 18.1203C22.323 15.9273 23.1067 13.2202 22.9009 10.496C22.695 7.77177 21.5138 5.21327 19.5736 3.2899C17.6334 1.36653 15.0647 0.207419 12.3388 0.0252746C9.6129 -0.15687 6.91251 0.650033 4.73369 2.29817C2.55487 3.94631 1.04378 6.32486 0.477332 8.99745C-0.0891203 11.67 0.327136 14.4572 1.65001 16.8476ZM6.86678 19.2621L6.47832 19.0302L3.03384 19.9531L3.95166 16.5286L3.71356 16.1373C2.54341 14.2145 2.11745 11.9296 2.51577 9.71431C2.91408 7.49897 4.10914 5.50601 5.87578 4.11125C7.64242 2.71649 9.85848 2.01644 12.1058 2.14308C14.3531 2.26971 16.4763 3.21422 18.0751 4.79861C19.6739 6.38301 20.6376 8.49784 20.7845 10.7439C20.9314 12.99 20.2512 15.2122 18.8724 16.9914C17.4936 18.7705 15.5116 19.9837 13.2999 20.402C11.0883 20.8203 8.80006 20.4148 6.86678 19.2621ZM14.1476 12.5868C14.6968 12.3617 15.3032 12.6731 15.7696 12.9516C15.8378 12.9924 15.9132 13.0347 15.9923 13.079C16.4167 13.3167 16.9479 13.6143 17.0456 14.0664C17.0934 14.3297 17.0603 14.6011 16.9506 14.8452C16.7587 15.2472 16.4717 15.5964 16.1144 15.8624C15.7571 16.1284 15.3403 16.3035 14.9002 16.3721C14.1398 16.5165 13.502 16.3034 12.8082 16.0715C12.7516 16.0526 12.6946 16.0336 12.6371 16.0146C11.9561 15.7815 11.304 15.4712 10.6933 15.0902C9.47745 14.3354 8.41933 13.3527 7.57688 12.1958C7.31813 11.8442 7.07783 11.479 6.85747 11.1021C6.55173 10.6097 6.31987 10.0752 6.16902 9.51552C6.11216 9.28059 6.08217 9.04001 6.07982 8.7983C6.06511 8.37141 6.14632 7.94668 6.31756 7.55536C6.4888 7.16404 6.74582 6.8163 7.06936 6.53742C7.25784 6.36913 7.49152 6.25936 7.74144 6.22213C7.99136 6.18491 8.24679 6.22166 8.47614 6.32771C8.88743 6.55961 9.12766 7.09849 9.32797 7.54783C9.35952 7.61862 9.39009 7.68717 9.42017 7.75196C9.63838 8.14188 9.74207 8.58546 9.71871 9.03167C9.59415 9.44373 9.36452 9.81645 9.05246 10.113C8.96616 10.1885 8.91192 10.294 8.90137 10.4082C8.89083 10.5224 8.92466 10.6364 8.99567 10.7264C9.82898 12.1567 11.121 13.2634 12.6622 13.8673C12.748 13.9153 12.8483 13.9304 12.9444 13.9099C13.0404 13.8893 13.1258 13.8344 13.1843 13.7555C13.2685 13.6513 13.3523 13.5165 13.4405 13.3748C13.6378 13.0575 13.8564 12.7059 14.1476 12.5868Z" fill="#7797BB"/>
</svg>
