<svg width="16" height="21" viewBox="0 0 16 21" fill="none" xmlns="http://www.w3.org/2000/svg">
<path d="M14.1418 7.55469C14.1588 7.55469 14.1588 7.55469 14.1758 7.55469V19.9815C14.1758 20.5418 13.7174 21.0001 13.1572 21.0001H2.03754C1.47732 21.0001 1.01895 20.5418 1.01895 19.9815C1.01895 19.9815 1.03592 7.55469 1.0529 7.55469H14.1418ZM10.5426 17.486C10.5426 17.9615 10.9161 18.3348 11.3915 18.3348C11.8668 18.3348 12.2403 17.9615 12.2403 17.486V10.933C12.2403 10.4577 11.8668 10.0842 11.3915 10.0842C10.9161 10.0842 10.5426 10.4577 10.5426 10.933V17.486ZM6.74005 17.486C6.74005 17.9615 7.11353 18.3348 7.58888 18.3348C8.06422 18.3348 8.43771 17.9615 8.43771 17.486V10.933C8.43771 10.4577 8.06422 10.0842 7.58888 10.0842C7.11353 10.0842 6.74005 10.4577 6.74005 10.933V17.486ZM2.9373 17.486C2.9373 17.9615 3.31062 18.3348 3.78613 18.3348C4.2613 18.3348 4.63496 17.9615 4.63496 17.486V10.933C4.63496 10.4577 4.2613 10.0842 3.78613 10.0842C3.31062 10.0842 2.9373 10.4577 2.9373 10.933V17.486Z" fill="#FFB000"/>
<path d="M1.03572 3.41229H1.95245H2.86919C3.15762 3.41229 3.37848 3.19159 3.37848 2.90299V1.05255C3.37848 0.475344 3.85383 0 4.43086 0H10.7465C11.3237 0 11.799 0.475344 11.799 1.05255V2.88601C11.799 3.17462 12.0197 3.39531 12.3083 3.39531H13.2251H14.1418C14.719 3.39531 15.1943 3.87066 15.1943 4.44786V4.80437C15.1943 5.38157 14.736 5.83994 14.1757 5.85691C14.1588 5.85691 14.1588 5.85691 14.1418 5.85691H1.05286C1.03572 5.85691 1.03572 5.85691 1.01891 5.85691C0.458684 5.83994 0.00031662 5.38157 0.00031662 4.80437V4.44786C-0.0166597 3.87066 0.458684 3.41229 1.03572 3.41229ZM5.12724 3.39531H10.0335V2.27486C10.0335 1.98626 9.79579 1.74859 9.50719 1.74859H5.65368C5.36491 1.74859 5.12724 1.98626 5.12724 2.27486V3.39531Z" fill="#FFB000"/>
</svg>
