<svg width="19" height="19" viewBox="0 0 19 19" fill="none" xmlns="http://www.w3.org/2000/svg">
<path d="M14.7636 11.5063C14.4122 11.848 14.4122 12.402 14.7636 12.7437C15.1151 13.0854 15.6849 13.0854 16.0364 12.7437L18.6581 10.1949C18.6716 10.1817 18.6847 10.1683 18.6973 10.1545C18.883 9.99421 19 9.76041 19 9.50001C19 9.23961 18.883 9.00581 18.6973 8.84551C18.6847 8.83177 18.6716 8.8183 18.6581 8.80517L16.0364 6.25628C15.6849 5.91457 15.1151 5.91457 14.7636 6.25628C14.4122 6.59799 14.4122 7.15201 14.7636 7.49373L15.9272 8.62501H10.9C10.4029 8.62501 10 9.01675 10 9.50001C10 9.98328 10.4029 10.375 10.9 10.375H15.9272L14.7636 11.5063Z" fill="#FFB000"/>
<path d="M2.8 0C1.25361 0 0 1.27599 0 2.85V16.15C0 17.7241 1.25361 19 2.8 19H11.6667C12.9553 19 14 17.9367 14 16.625V13.996C13.8618 13.9146 13.7317 13.8139 13.6134 13.6935C13.0026 13.0718 12.9036 12.1267 13.3162 11.4H10.2667C9.23571 11.4 8.4 10.5494 8.4 9.5C8.4 8.45063 9.23571 7.6 10.2667 7.6H13.3162C12.9036 6.87338 13.0026 5.92814 13.6134 5.3065C13.7317 5.18615 13.8618 5.08531 14 5.00401V2.375C14 1.06333 12.9553 0 11.6667 0H2.8Z" fill="#FFB000"/>
</svg>
