<svg width="15" height="21" viewBox="0 0 15 21" fill="none" xmlns="http://www.w3.org/2000/svg">
<g clip-path="url(#clip0_31_585)">
<path d="M7.5 0C5.95703 0 4.67188 1.17715 4.42188 2.71934C3.66797 2.97773 3.125 3.72012 3.125 4.59375V5.57812C3.125 6.12363 3.54297 6.5625 4.0625 6.5625H7.5H10.9375C11.457 6.5625 11.875 6.12363 11.875 5.57812V4.59375C11.875 3.72012 11.332 2.97773 10.5781 2.71934C10.3281 1.17715 9.04297 0 7.5 0ZM7.5 2.29688C7.74864 2.29688 7.9871 2.40059 8.16291 2.58519C8.33873 2.7698 8.4375 3.02018 8.4375 3.28125C8.4375 3.54232 8.33873 3.7927 8.16291 3.97731C7.9871 4.16191 7.74864 4.26562 7.5 4.26562C7.25136 4.26562 7.0129 4.16191 6.83709 3.97731C6.66127 3.7927 6.5625 3.54232 6.5625 3.28125C6.5625 3.02018 6.66127 2.7698 6.83709 2.58519C7.0129 2.40059 7.25136 2.29688 7.5 2.29688Z" fill="black"/>
<path d="M4.4375 2.625C4.42969 2.65781 4.42578 2.69063 4.42188 2.71934C3.66797 2.97773 3.125 3.72012 3.125 4.59375V5.57812C3.125 6.12363 3.54297 6.5625 4.0625 6.5625H7.5H10.9375C11.457 6.5625 11.875 6.12363 11.875 5.57812V4.59375C11.875 3.72012 11.332 2.97773 10.5781 2.71934C10.5742 2.68652 10.5664 2.65371 10.5625 2.625H12.5C13.8789 2.625 15 3.80215 15 5.25V18.375C15 19.8229 13.8789 21 12.5 21H2.5C1.12109 21 0 19.8229 0 18.375V5.25C0 3.80215 1.12109 2.625 2.5 2.625H4.4375Z" fill="#FFB000"/>
</g>
<defs>
<clipPath id="clip0_31_585">
<rect width="15" height="21" fill="white"/>
</clipPath>
</defs>
</svg>
