<svg width="23" height="23" viewBox="0 0 23 23" fill="none" xmlns="http://www.w3.org/2000/svg">
<path d="M16.5206 6.84148C16.5206 7.63813 17.1758 8.28396 17.9839 8.28396C18.7921 8.28396 19.4472 7.63813 19.4472 6.84148C19.4472 6.04482 18.7921 5.399 17.9839 5.399C17.1758 5.399 16.5206 6.04482 16.5206 6.84148ZM15.0212 11.6706V10.5441C15.0212 9.554 15.8412 8.74185 16.8495 8.74185H19.2431C20.2475 8.74185 21.0713 9.5501 21.0713 10.5441V11.6706H15.0212ZM8.59993 3.66797V5.75309C8.34199 5.75309 7.85998 5.80755 7.51282 5.91109C6.58546 6.18768 5.80301 6.80649 5.32342 7.8406L0.179688 19.0048H7.25488L7.7103 17.5087C9.7042 17.0317 11.197 15.5207 11.7991 13.6211L11.8066 13.6212C11.8216 13.555 11.8416 13.4899 11.863 13.4251H22.8203V3.66797H8.59993ZM22.1128 12.7277H10.3687C10.103 14.0672 9.09776 15.2858 7.74309 15.8313C7.69934 15.8489 7.65397 15.8573 7.60941 15.8573C7.46997 15.8573 7.33781 15.7754 7.28175 15.6404C7.20789 15.4621 7.29459 15.2586 7.47545 15.1857C8.80226 14.6514 9.72918 13.3559 9.73098 12.0342V11.6816H13.3594C13.8954 11.6815 14.33 11.2532 14.33 10.7248C14.33 10.1968 13.896 9.7686 13.3603 9.76815L6.98948 9.76346C6.79416 9.76346 6.63568 9.60732 6.63568 9.41469C6.63568 9.22205 6.79407 9.06591 6.98948 9.06591H9.30736V4.36543H22.1127V12.7277H22.1128ZM10.3687 5.75309H14.3301V6.45055H10.3687V5.75309ZM10.3687 7.49678H14.3301V8.19424H10.3687V7.49678Z" fill="#FFB000"/>
</svg>
