<svg width="20" height="16" viewBox="0 0 20 16" fill="none" xmlns="http://www.w3.org/2000/svg">
<path d="M0 4.8C0 3.11984 0 2.27976 0.32698 1.63803C0.614601 1.07354 1.07354 0.614601 1.63803 0.32698C2.27976 0 3.11984 0 4.8 0H15.2C16.8802 0 17.7202 0 18.362 0.32698C18.9265 0.614601 19.3854 1.07354 19.673 1.63803C20 2.27976 20 3.11984 20 4.8V11.2C20 12.8802 20 13.7202 19.673 14.362C19.3854 14.9265 18.9265 15.3854 18.362 15.673C17.7202 16 16.8802 16 15.2 16H4.8C3.11984 16 2.27976 16 1.63803 15.673C1.07354 15.3854 0.614601 14.9265 0.32698 14.362C0 13.7202 0 12.8802 0 11.2V4.8Z" fill="#FFB000"/>
<path fill-rule="evenodd" clip-rule="evenodd" d="M15 5H20V11H15C13.3431 11 12 9.65685 12 8C12 6.34315 13.3431 5 15 5ZM15 9C15.5523 9 16 8.55228 16 8C16 7.44772 15.5523 7 15 7C14.4477 7 14 7.44772 14 8C14 8.55228 14.4477 9 15 9Z" fill="white"/>
</svg>
