<svg width="15" height="15" viewBox="0 0 15 15" fill="none" xmlns="http://www.w3.org/2000/svg">
<path d="M10.5312 13.1875C10.6875 13.0312 10.7656 12.8462 10.7656 12.6325C10.7656 12.4192 10.6875 12.2344 10.5312 12.0781L5.95312 7.5L10.5469 2.90625C10.6927 2.76042 10.7656 2.57812 10.7656 2.35938C10.7656 2.14063 10.6875 1.95312 10.5312 1.79688C10.375 1.64062 10.19 1.5625 9.97625 1.5625C9.76292 1.5625 9.57812 1.64062 9.42188 1.79688L4.17187 7.0625C4.10937 7.125 4.065 7.19271 4.03875 7.26562C4.01292 7.33854 4 7.41667 4 7.5C4 7.58333 4.01292 7.66146 4.03875 7.73438C4.065 7.80729 4.10937 7.875 4.17187 7.9375L9.4375 13.2031C9.58333 13.349 9.76292 13.4219 9.97625 13.4219C10.19 13.4219 10.375 13.3438 10.5312 13.1875Z" fill="#777777"/>
</svg>
