<svg width="14" height="14" viewBox="0 0 14 14" fill="none" xmlns="http://www.w3.org/2000/svg">
<path d="M12.332 1.65858L12.3319 1.65855C12.204 1.53076 11.9967 1.53062 11.8687 1.65857L11.8687 1.65858L9.50917 4.01803C9.50916 4.01804 9.50916 4.01804 9.50916 4.01804C9.38119 4.14598 9.38121 4.35335 9.50912 4.4813L9.50915 4.48133C9.57311 4.54525 9.65708 4.57723 9.74078 4.57723C9.82441 4.57723 9.90843 4.54526 9.9724 4.48133L9.97242 4.48131L12.332 2.12185L12.332 2.12183C12.4599 1.99388 12.4599 1.7865 12.332 1.65858Z" fill="#B5BEC8" stroke="#B5BEC8" stroke-width="0.2"/>
<path d="M12.9735 2.29029L12.9735 2.29027C12.8455 2.16243 12.6382 2.16242 12.5103 2.29028L12.5102 2.2903L10.1507 4.64981L10.1507 4.64983C10.0228 4.77778 10.0228 4.98512 10.1507 5.11306L10.1507 5.1131C10.2147 5.17703 10.2987 5.209 10.3823 5.209C10.466 5.209 10.55 5.17703 10.614 5.1131L10.614 5.11308L12.9735 2.75354C13.1014 2.62561 13.1014 2.41821 12.9735 2.29029Z" fill="#B5BEC8" stroke="#B5BEC8" stroke-width="0.2"/>
<path d="M10.7476 6.41561L10.7476 6.41561C10.2809 6.88227 9.59554 7.04401 8.97791 6.85176L8.35009 7.55911L12.0465 10.84C12.0734 10.863 12.0982 10.8858 12.1219 10.9095M10.7476 6.41561L11.9808 10.9154C12.0062 10.9371 12.0293 10.9583 12.0511 10.9801C12.5123 11.4415 12.5123 12.1922 12.0509 12.6537C11.8202 12.8844 11.5171 12.9997 11.214 12.9997C10.911 12.9997 10.6079 12.8844 10.3772 12.6537M10.7476 6.41561L13.6766 3.48656L13.6767 3.48655C13.8046 3.3586 13.8046 3.15124 13.6766 3.0233L13.6766 3.02326C13.5487 2.89549 13.3414 2.89532 13.2134 3.0233L10.2844 5.95234C9.9535 6.28321 9.44733 6.37005 9.02522 6.16847L9.02521 6.16846C8.89344 6.10557 8.73602 6.13736 8.63906 6.24661C8.63906 6.24661 8.63906 6.24661 8.63906 6.24661L7.64578 7.36572M10.7476 6.41561L7.64578 7.36572M12.1219 10.9095L12.0511 10.9801L12.1218 10.9094C12.1218 10.9095 12.1219 10.9095 12.1219 10.9095ZM12.1219 10.9095C12.6221 11.4099 12.622 12.2239 12.1217 12.7244L12.1217 12.7244C11.8714 12.9746 11.5425 13.0997 11.214 13.0997C10.8857 13.0997 10.5569 12.9747 10.3066 12.7245M10.3066 12.7245L10.3772 12.6537M10.3066 12.7245C10.3066 12.7244 10.3065 12.7244 10.3065 12.7244L10.3772 12.6537M10.3066 12.7245C10.283 12.7009 10.2602 12.6762 10.2372 12.6492L7.03471 9.04106M10.3772 12.6537C10.3555 12.632 10.3344 12.609 10.3126 12.5835L7.03471 9.04106M7.64578 7.36572C7.64484 7.36669 7.64376 7.36785 7.64263 7.36911L7.64263 7.36912L7.64065 7.37148L3.33996 12.2168L3.3397 12.2171L3.33537 12.2221C3.32264 12.2371 3.31106 12.2497 3.29966 12.2611C3.05469 12.5061 2.6559 12.506 2.41106 12.2611L2.41104 12.2611C2.29224 12.1423 2.22701 11.9848 2.22701 11.8168C2.22701 11.6488 2.29222 11.4913 2.4113 11.3722L2.41149 11.372C2.42233 11.3611 2.43481 11.3497 2.45004 11.3367L2.45002 11.3367L2.45504 11.3324L2.45536 11.3321L5.14456 8.94523C5.27988 8.82512 5.29216 8.61809 5.17211 8.48282C5.17211 8.48281 5.1721 8.48281 5.1721 8.48281L5.09731 8.54919M7.64578 7.36572L4.70968 8.45527L4.77606 8.53006M5.09731 8.54919C5.01387 8.45516 4.87002 8.44657 4.77606 8.53006M5.09731 8.54919C5.18072 8.64317 5.17218 8.787 5.07818 8.87044L2.38898 11.2573M5.09731 8.54919L2.38898 11.2573M4.77606 8.53006L4.70964 8.4553L2.023 10.8399M4.77606 8.53006L2.08864 10.9154M2.08864 10.9154L2.02376 10.8393C2.02351 10.8395 2.02325 10.8397 2.023 10.8399M2.08864 10.9154L2.02226 10.8406L2.023 10.8399M2.08864 10.9154C2.06295 10.9373 2.03995 10.9585 2.01852 10.9799M2.023 10.8399C1.99575 10.8632 1.97104 10.886 1.94781 10.9092M1.94781 10.9092L2.01852 10.9799M1.94781 10.9092C1.9478 10.9092 1.94778 10.9093 1.94777 10.9093M1.94781 10.9092L1.94777 10.9093M2.01852 10.9799L1.94777 10.9093M2.01852 10.9799C1.79499 11.2035 1.67188 11.5007 1.67188 11.8168C1.67188 12.1329 1.79496 12.4301 2.01849 12.6536C2.24925 12.8843 2.55229 12.9997 2.85539 12.9997C3.15838 12.9997 3.46148 12.8844 3.69207 12.6538L3.7627 12.7245M1.94777 10.9093C1.70551 11.1515 1.57187 11.4742 1.57187 11.8168C1.57187 12.1594 1.7055 12.4821 1.94778 12.7243L1.94779 12.7243C2.19811 12.9746 2.52694 13.0997 2.8554 13.0997C3.18367 13.0997 3.51254 12.9747 3.7627 12.7245M1.94777 10.9093L3.7627 12.7245M1.94777 10.9093L3.7627 12.7245M7.03471 9.04106L3.83223 12.6492L7.03471 9.04106ZM2.34059 11.3015C2.20277 11.4393 2.12701 11.6222 2.12701 11.8168C2.12701 12.0113 2.20277 12.1943 2.34034 12.3318C2.62424 12.6158 3.08635 12.6158 3.37037 12.3318C3.38394 12.3182 3.39733 12.3036 3.41151 12.2869L3.41475 12.2832L2.34059 11.3015ZM2.34059 11.3015C2.3538 11.2882 2.36841 11.2749 2.38521 11.2606L2.38898 11.2573M2.34059 11.3015L2.38898 11.2573M7.6371 7.37587C7.63692 7.3761 7.63709 7.37588 7.63751 7.37534L7.6371 7.37587ZM7.64158 7.37043L7.6415 7.37052L7.64158 7.37043ZM11.6141 11.3321L11.6144 11.3324L11.6194 11.3367C11.6344 11.3495 11.647 11.3611 11.6584 11.3725C11.9033 11.6175 11.9033 12.0162 11.6584 12.2611C11.4134 12.506 11.0147 12.506 10.7696 12.2609L10.6989 12.3316L10.7696 12.2609C10.7583 12.2496 10.7467 12.237 10.734 12.2221L10.7297 12.2171L10.7294 12.2167L7.47266 8.54758L7.91514 8.04905L11.6141 11.3321Z" fill="#B5BEC8" stroke="#B5BEC8" stroke-width="0.2"/>
<path d="M11.6489 0.995885L11.649 0.995914C11.7769 1.12385 11.7769 1.33122 11.649 1.45917L11.649 1.45918L8.71996 4.38822L8.71996 4.38823C8.38907 4.71907 8.3022 5.22518 8.50383 5.64733L8.50384 5.64735C8.5667 5.77907 8.53491 5.93654 8.4257 6.03349L8.42569 6.0335L6.39939 7.83204L6.39938 7.83204C6.33706 7.88736 6.25928 7.91463 6.18202 7.91463C6.09185 7.91463 6.0017 7.87748 5.93694 7.80453L5.93687 7.80445L5.50398 7.31673L5.21161 6.98734L5.12949 6.89482C4.22334 7.3194 3.14354 7.13891 2.42074 6.41607C2.42074 6.41606 2.42074 6.41606 2.42074 6.41606M11.6489 0.995885L1.09274 4.04326C1.28882 4.82192 1.78554 5.63951 2.49145 6.34535L2.42074 6.41606M11.6489 0.995885C11.521 0.868044 11.3137 0.86803 11.1857 0.995894L11.1857 0.995915L8.25672 3.92498M11.6489 0.995885L8.25672 3.92498M2.42074 6.41606C1.70513 5.70053 1.19722 4.86765 0.995769 4.06768L0.995768 4.06768C0.78553 3.23271 0.921448 2.49518 1.40679 2.00986C1.89214 1.52454 2.62956 1.38865 3.46458 1.59883L3.46459 1.59883C4.26461 1.80026 5.09749 2.3082 5.81305 3.02375L5.74233 3.09447L5.81305 3.02376C6.53584 3.74658 6.71633 4.8264 6.29178 5.7325L7.03486 6.39206L7.8205 5.69472M2.42074 6.41606L7.8205 5.69472M8.25672 3.92498C8.25672 3.92498 8.25672 3.92498 8.25672 3.92498C7.78992 4.39173 7.62824 5.07699 7.8205 5.69472M8.25672 3.92498L7.8205 5.69472M2.81322 6.02356C3.42003 6.63039 4.3534 6.73987 5.08303 6.28996L2.81322 6.02356ZM2.81322 6.02356C2.16463 5.37499 1.71037 4.63228 1.53406 3.93213C1.37008 3.28075 1.46429 2.73745 1.79935 2.40241L2.81322 6.02356ZM5.66308 6.0505L6.54136 6.83004L6.20946 7.12468L5.44746 6.2662L5.44746 6.26619C5.34189 6.14727 5.16596 6.1212 5.03048 6.20488C4.34036 6.63038 3.458 6.52694 2.88393 5.95285L2.88393 5.95285C2.24471 5.31365 1.80188 4.5862 1.63103 3.90772C1.47168 3.2747 1.56954 2.77362 1.87006 2.47313L1.87007 2.47312C2.17053 2.17259 2.6716 2.07477 3.3046 2.23415C3.98308 2.40498 4.71059 2.84778 5.34975 3.48699L5.34976 3.487C5.92384 4.06106 6.0273 4.94346 5.60172 5.63358C5.5182 5.76902 5.54412 5.94486 5.66307 6.05049L5.66308 6.0505Z" fill="#B5BEC8" stroke="#B5BEC8" stroke-width="0.2"/>
</svg>
