<svg width="200" height="200" viewBox="0 0 200 200" fill="none" xmlns="http://www.w3.org/2000/svg">
<path d="M18.9761 175.768L39.2321 175.672L59.4881 175.636L100 175.568L140.512 175.632L160.768 175.668L181.024 175.768L160.768 175.864L140.512 175.9L100 175.968L59.4881 175.9L39.2321 175.864L18.9761 175.768Z" fill="#263238"/>
<path d="M133.804 22.628H66.2041C65.2954 22.6337 64.3968 22.8188 63.5598 23.1726C62.7228 23.5264 61.9638 24.0419 61.3265 24.6897C60.6892 25.3374 60.186 26.1046 59.8458 26.9472C59.5056 27.7898 59.3351 28.6913 59.3441 29.6V168.8C59.3281 170.631 60.0401 172.394 61.3235 173.701C62.6069 175.008 64.3566 175.751 66.1881 175.768H133.788C134.697 175.762 135.595 175.576 136.432 175.223C137.269 174.869 138.028 174.354 138.666 173.707C139.304 173.06 139.808 172.294 140.149 171.452C140.491 170.61 140.663 169.709 140.656 168.8V29.6C140.664 28.6923 140.493 27.7919 140.153 26.9503C139.813 26.1086 139.31 25.3422 138.674 24.6948C138.038 24.0474 137.28 23.5317 136.445 23.177C135.609 22.8224 134.712 22.6358 133.804 22.628ZM136.376 164.496C136.376 168.16 133.632 171.124 130.248 171.124H69.7561C66.3641 171.124 63.6201 168.16 63.6201 164.496V34.872C63.6201 27.408 66.3641 27.044 69.7561 27.044H81.8721C82.5761 27.044 83.1521 27.844 83.1521 28.836V29.264C83.1521 31.6 84.4241 31.6 86.0001 31.6H114C115.572 31.6 116.836 31.6 116.836 29.268V28.836C116.836 27.844 117.4 27.044 118.116 27.044H130.236C133.62 27.044 136.364 28.036 136.364 34.872L136.376 164.496Z" fill="#263238"/>
<path d="M103.82 28.692H96.1761C96.1141 28.692 96.0527 28.6798 95.9955 28.6561C95.9382 28.6323 95.8862 28.5976 95.8424 28.5537C95.7985 28.5099 95.7638 28.4579 95.74 28.4006C95.7163 28.3433 95.7041 28.282 95.7041 28.22C95.7041 28.0948 95.7538 27.9747 95.8424 27.8862C95.9309 27.7977 96.0509 27.748 96.1761 27.748H103.82C103.945 27.748 104.065 27.7977 104.154 27.8862C104.242 27.9747 104.292 28.0948 104.292 28.22C104.292 28.282 104.28 28.3433 104.256 28.4006C104.232 28.4579 104.198 28.5099 104.154 28.5537C104.11 28.5976 104.058 28.6323 104.001 28.6561C103.943 28.6798 103.882 28.692 103.82 28.692Z" fill="white"/>
<path d="M136.4 34.872V164.496C136.4 168.16 133.656 171.124 130.272 171.124H69.7561C66.3641 171.124 63.6201 168.16 63.6201 164.496V34.872C63.6201 27.408 66.3641 27.044 69.7561 27.044H81.8721C82.5761 27.044 83.1521 27.844 83.1521 28.836V29.264C83.1521 31.6 84.4241 31.6 86.0001 31.6H114C115.576 31.6 116.836 31.6 116.836 29.268V28.836C116.836 27.844 117.404 27.044 118.12 27.044H130.24C133.636 27.044 136.4 28.036 136.4 34.872Z" fill="white"/>
<path d="M70.984 39.82L68.832 37.808L70.984 35.792L71.316 36.148L69.548 37.808L71.316 39.468L70.984 39.82Z" fill="#C7C7C7"/>
<path d="M130.744 36.552C130.744 36.6358 130.719 36.7178 130.673 36.7875C130.626 36.8573 130.56 36.9116 130.482 36.9437C130.405 36.9758 130.32 36.9842 130.237 36.9678C130.155 36.9515 130.079 36.9111 130.02 36.8518C129.961 36.7925 129.921 36.7169 129.904 36.6347C129.888 36.5524 129.896 36.4672 129.928 36.3897C129.96 36.3122 130.015 36.246 130.084 36.1994C130.154 36.1528 130.236 36.128 130.32 36.128C130.376 36.1274 130.431 36.138 130.483 36.1592C130.535 36.1803 130.582 36.2115 130.621 36.251C130.66 36.2905 130.692 36.3374 130.713 36.3891C130.734 36.4408 130.745 36.4961 130.744 36.552Z" fill="#C7C7C7"/>
<path d="M130.744 38.056C130.744 38.1398 130.719 38.2218 130.673 38.2915C130.626 38.3613 130.56 38.4156 130.482 38.4477C130.405 38.4798 130.32 38.4882 130.237 38.4718C130.155 38.4555 130.079 38.4151 130.02 38.3558C129.961 38.2965 129.921 38.2209 129.904 38.1387C129.888 38.0564 129.896 37.9712 129.928 37.8937C129.96 37.8162 130.015 37.75 130.084 37.7034C130.154 37.6568 130.236 37.632 130.32 37.632C130.376 37.6314 130.431 37.642 130.483 37.6632C130.535 37.6843 130.582 37.7155 130.621 37.755C130.66 37.7945 130.692 37.8414 130.713 37.8931C130.734 37.9448 130.745 38.0001 130.744 38.056Z" fill="#C7C7C7"/>
<path d="M130.744 39.56C130.744 39.6439 130.719 39.7258 130.673 39.7956C130.626 39.8653 130.56 39.9196 130.482 39.9517C130.405 39.9838 130.32 39.9922 130.237 39.9759C130.155 39.9595 130.079 39.9191 130.02 39.8598C129.961 39.8005 129.921 39.725 129.904 39.6427C129.888 39.5605 129.896 39.4752 129.928 39.3977C129.96 39.3203 130.015 39.2541 130.084 39.2075C130.154 39.1609 130.236 39.136 130.32 39.136C130.376 39.1355 130.431 39.1461 130.483 39.1672C130.535 39.1883 130.582 39.2195 130.621 39.259C130.66 39.2985 130.692 39.3454 130.713 39.3971C130.734 39.4488 130.745 39.5042 130.744 39.56Z" fill="#C7C7C7"/>
<path d="M79.7802 29.956L79.6642 30.072L79.5962 30.136C79.2964 29.838 78.8909 29.6707 78.4682 29.6707C78.0455 29.6707 77.6399 29.838 77.3402 30.136L77.2762 30.068L77.1602 29.952L77.3082 29.82C77.4154 29.7368 77.5307 29.6645 77.6522 29.604C77.796 29.5314 77.9496 29.4802 78.1082 29.452C78.1822 29.4371 78.2569 29.4264 78.3322 29.42H78.5322H78.6842C78.8275 29.4371 78.9684 29.4707 79.1042 29.52C79.2008 29.5566 79.2944 29.6007 79.3842 29.652C79.479 29.7063 79.5688 29.7693 79.6522 29.84L79.7762 29.952L79.7802 29.956Z" fill="#C7C7C7"/>
<path d="M77.7119 30.504L77.5239 30.32C77.7749 30.0708 78.1143 29.931 78.4679 29.931C78.8216 29.931 79.1609 30.0708 79.4119 30.32L79.2239 30.504C79.0231 30.3042 78.7513 30.192 78.4679 30.192C78.1846 30.192 77.9128 30.3042 77.7119 30.504Z" fill="#C7C7C7"/>
<path d="M79.0401 30.692L78.8561 30.872C78.8033 30.8202 78.7407 30.7795 78.6721 30.752C78.6034 30.7245 78.53 30.7109 78.4561 30.712C78.3817 30.7105 78.3079 30.7243 78.2391 30.7526C78.1703 30.7808 78.108 30.8228 78.0561 30.876C77.9961 30.812 77.9321 30.752 77.8721 30.692C77.9469 30.6121 78.0373 30.5483 78.1378 30.5048C78.2383 30.4612 78.3466 30.4388 78.4561 30.4388C78.5656 30.4388 78.6739 30.4612 78.7743 30.5048C78.8748 30.5483 78.9652 30.6121 79.0401 30.692Z" fill="#C7C7C7"/>
<path d="M78.6362 31.04C78.6362 31.0845 78.6185 31.1273 78.587 31.1588C78.5555 31.1903 78.5128 31.208 78.4682 31.208C78.4464 31.208 78.4247 31.2036 78.4046 31.1951C78.3844 31.1866 78.3661 31.1742 78.3508 31.1586C78.3356 31.1429 78.3236 31.1243 78.3156 31.104C78.3076 31.0836 78.3037 31.0619 78.3042 31.04C78.3042 30.9965 78.3215 30.9548 78.3523 30.924C78.383 30.8933 78.4248 30.876 78.4682 30.876C78.4901 30.8755 78.5119 30.8793 78.5322 30.8873C78.5526 30.8953 78.5712 30.9073 78.5868 30.9226C78.6025 30.9379 78.6149 30.9561 78.6234 30.9763C78.6319 30.9965 78.6363 31.0181 78.6362 31.04Z" fill="#C7C7C7"/>
<path d="M68.3643 30.308C68.3643 30.2121 68.3928 30.1184 68.4461 30.0387C68.4995 29.959 68.5753 29.897 68.664 29.8605C68.7527 29.824 68.8502 29.8146 68.9442 29.8336C69.0382 29.8526 69.1244 29.8991 69.1919 29.9672C69.2595 30.0353 69.3052 30.1219 69.3235 30.216C69.3417 30.3102 69.3315 30.4076 69.2943 30.496C69.257 30.5844 69.1944 30.6597 69.1143 30.7124C69.0341 30.7651 68.9402 30.7928 68.8443 30.792C68.7809 30.792 68.7182 30.7794 68.6597 30.7551C68.6012 30.7307 68.5481 30.695 68.5034 30.65C68.4588 30.605 68.4235 30.5516 68.3997 30.4929C68.3758 30.4342 68.3637 30.3714 68.3643 30.308Z" fill="#C7C7C7"/>
<path d="M69.8799 30.308C69.8815 30.2126 69.9112 30.1199 69.9654 30.0413C70.0195 29.9628 70.0956 29.902 70.1842 29.8666C70.2728 29.8312 70.3698 29.8227 70.4632 29.8423C70.5565 29.8619 70.642 29.9086 70.7089 29.9766C70.7758 30.0446 70.8211 30.1308 70.8392 30.2245C70.8572 30.3181 70.8471 30.415 70.8103 30.503C70.7734 30.591 70.7114 30.6661 70.632 30.719C70.5526 30.7718 70.4593 30.8 70.364 30.8C70.2997 30.8 70.2361 30.7872 70.1769 30.7624C70.1176 30.7376 70.0639 30.7012 70.0189 30.6554C69.9738 30.6096 69.9383 30.5553 69.9145 30.4957C69.8906 30.436 69.8789 30.3722 69.8799 30.308Z" fill="#C7C7C7"/>
<path d="M71.4 30.308C71.4015 30.2126 71.4313 30.1199 71.4854 30.0413C71.5395 29.9628 71.6157 29.902 71.7042 29.8666C71.7928 29.8312 71.8898 29.8227 71.9832 29.8423C72.0766 29.8619 72.162 29.9086 72.2289 29.9766C72.2958 30.0446 72.3411 30.1308 72.3592 30.2245C72.3772 30.3181 72.3672 30.415 72.3303 30.503C72.2935 30.591 72.2314 30.6661 72.152 30.719C72.0726 30.7718 71.9794 30.8 71.884 30.8C71.8197 30.8 71.7561 30.7872 71.6969 30.7624C71.6376 30.7376 71.5839 30.7012 71.5389 30.6554C71.4938 30.6096 71.4583 30.5553 71.4345 30.4957C71.4106 30.436 71.3989 30.3722 71.4 30.308Z" fill="#C7C7C7"/>
<path d="M72.9201 30.308C72.9217 30.2124 72.9515 30.1195 73.0058 30.0409C73.0601 29.9623 73.1365 29.9015 73.2253 29.8662C73.3141 29.8309 73.4113 29.8227 73.5048 29.8426C73.5982 29.8625 73.6837 29.9096 73.7504 29.978C73.8172 30.0464 73.8622 30.133 73.8797 30.2269C73.8973 30.3209 73.8867 30.4179 73.8492 30.5058C73.8118 30.5937 73.7491 30.6685 73.6692 30.7209C73.5893 30.7732 73.4956 30.8008 73.4001 30.8C73.336 30.8 73.2726 30.7872 73.2136 30.7623C73.1545 30.7375 73.1011 30.701 73.0563 30.6552C73.0116 30.6093 72.9765 30.555 72.9531 30.4954C72.9297 30.4357 72.9185 30.372 72.9201 30.308Z" fill="#C7C7C7"/>
<path d="M74.4401 30.308C74.4417 30.2124 74.4715 30.1195 74.5258 30.0409C74.5801 29.9623 74.6565 29.9015 74.7453 29.8662C74.8341 29.8309 74.9313 29.8227 75.0248 29.8426C75.1183 29.8625 75.2037 29.9096 75.2705 29.978C75.3372 30.0464 75.3822 30.133 75.3998 30.2269C75.4173 30.3209 75.4067 30.4179 75.3693 30.5058C75.3318 30.5937 75.2691 30.6685 75.1892 30.7209C75.1093 30.7732 75.0156 30.8008 74.9201 30.8C74.856 30.8 74.7926 30.7872 74.7336 30.7623C74.6746 30.7375 74.6211 30.701 74.5764 30.6552C74.5316 30.6093 74.4965 30.555 74.4731 30.4954C74.4497 30.4357 74.4385 30.372 74.4401 30.308Z" fill="#C7C7C7"/>
<path d="M130.924 31.364H126.992V29.54H130.924V31.364ZM127.2 31.16H130.72V29.744H127.2V31.16Z" fill="#C7C7C7"/>
<path d="M129.852 29.852H127.32V31.052H129.852V29.852Z" fill="#C7C7C7"/>
<path d="M131.272 29.964H130.924V30.936H131.272V29.964Z" fill="#C7C7C7"/>
<path d="M74.6759 163.2H74.1199V165.74H73.0879V164.444H71.2559V165.74H70.2239V163.2H69.6719L72.1719 160.612L74.6759 163.2Z" fill="#EBEBEB"/>
<path d="M130.332 160.612H124.3V161.472H130.332V160.612Z" fill="#EBEBEB"/>
<path d="M130.332 162.744H124.3V163.604H130.332V162.744Z" fill="#EBEBEB"/>
<path d="M130.332 164.876H124.3V165.736H130.332V164.876Z" fill="#EBEBEB"/>
<path d="M101.716 162.832L100 164.664L98.2842 162.832L98.5882 162.552L100 164.056L101.412 162.552L101.716 162.832Z" fill="#EBEBEB"/>
<path d="M100 166.556C99.384 166.556 98.7815 166.373 98.2691 166.031C97.7567 165.688 97.3573 165.202 97.1215 164.632C96.8856 164.063 96.8239 163.437 96.9442 162.832C97.0644 162.228 97.3612 161.672 97.7969 161.237C98.2327 160.801 98.7879 160.504 99.3924 160.384C99.9968 160.264 100.623 160.325 101.193 160.561C101.762 160.797 102.249 161.196 102.591 161.709C102.934 162.221 103.116 162.824 103.116 163.44C103.114 164.266 102.785 165.057 102.201 165.641C101.617 166.225 100.826 166.554 100 166.556ZM100 160.736C99.4655 160.736 98.9427 160.895 98.498 161.192C98.0533 161.489 97.7068 161.911 97.5021 162.405C97.2975 162.899 97.2439 163.443 97.3482 163.968C97.4526 164.492 97.7101 164.974 98.0883 165.352C98.4664 165.73 98.9482 165.988 99.4728 166.092C99.9973 166.196 100.541 166.143 101.035 165.938C101.529 165.734 101.951 165.387 102.249 164.942C102.546 164.498 102.704 163.975 102.704 163.44C102.704 162.723 102.419 162.035 101.912 161.528C101.405 161.021 100.717 160.736 100 160.736Z" fill="#EBEBEB"/>
<path d="M95.3481 152.244C95.3481 152.45 95.2871 152.651 95.1728 152.822C95.0585 152.993 94.8961 153.126 94.7061 153.205C94.516 153.284 94.3069 153.304 94.1052 153.264C93.9034 153.224 93.7181 153.125 93.5727 152.979C93.4272 152.834 93.3282 152.649 93.288 152.447C93.2479 152.245 93.2685 152.036 93.3472 151.846C93.426 151.656 93.5592 151.494 93.7303 151.379C93.9013 151.265 94.1024 151.204 94.3081 151.204C94.4448 151.203 94.5803 151.23 94.7067 151.282C94.8331 151.334 94.948 151.411 95.0446 151.507C95.1413 151.604 95.2179 151.719 95.27 151.845C95.3221 151.972 95.3486 152.107 95.3481 152.244Z" fill="#DBDBDB"/>
<path d="M101.688 152.244C101.688 152.556 101.596 152.86 101.423 153.12C101.249 153.379 101.003 153.581 100.715 153.7C100.427 153.819 100.11 153.851 99.8047 153.79C99.499 153.729 99.2181 153.579 98.9977 153.358C98.7773 153.138 98.6272 152.857 98.5664 152.551C98.5056 152.246 98.5368 151.929 98.6561 151.641C98.7754 151.353 98.9774 151.107 99.2366 150.934C99.4957 150.76 99.8004 150.668 100.112 150.668C100.53 150.668 100.931 150.834 101.227 151.13C101.522 151.425 101.688 151.826 101.688 152.244Z" fill="#FFB000"/>
<path d="M106.956 152.244C106.956 152.45 106.895 152.651 106.781 152.822C106.666 152.993 106.504 153.126 106.314 153.205C106.124 153.284 105.915 153.304 105.713 153.264C105.511 153.224 105.326 153.125 105.181 152.979C105.035 152.834 104.936 152.649 104.896 152.447C104.856 152.245 104.876 152.036 104.955 151.846C105.034 151.656 105.167 151.494 105.338 151.379C105.509 151.265 105.71 151.204 105.916 151.204C106.053 151.203 106.188 151.23 106.315 151.282C106.441 151.334 106.556 151.411 106.653 151.507C106.749 151.604 106.826 151.719 106.878 151.845C106.93 151.972 106.957 152.107 106.956 152.244Z" fill="#DBDBDB"/>
<path d="M113.812 123.268H85.7402V132.196H113.812V123.268Z" fill="#FFB000"/>
<path d="M93.6 128.984V126.584C93.5995 126.554 93.6049 126.525 93.616 126.498C93.627 126.47 93.6435 126.445 93.6644 126.424C93.6853 126.403 93.7102 126.387 93.7377 126.376C93.7651 126.365 93.7944 126.359 93.824 126.36C93.8538 126.359 93.8833 126.365 93.911 126.376C93.9386 126.387 93.9638 126.403 93.985 126.424C94.0062 126.445 94.0231 126.47 94.0346 126.497C94.0461 126.525 94.052 126.554 94.052 126.584V128.772H95.164C95.2245 128.772 95.2825 128.796 95.3252 128.839C95.368 128.882 95.392 128.94 95.392 129C95.392 129.06 95.368 129.118 95.3252 129.161C95.2825 129.204 95.2245 129.228 95.164 129.228H93.824C93.7928 129.228 93.762 129.222 93.7334 129.209C93.7048 129.197 93.6792 129.178 93.6581 129.155C93.637 129.133 93.621 129.105 93.611 129.076C93.601 129.046 93.5972 129.015 93.6 128.984Z" fill="white"/>
<path d="M98.0001 126.696C98.2666 126.975 98.4153 127.346 98.4153 127.732C98.4153 128.118 98.2666 128.489 98.0001 128.768C97.8768 128.905 97.7264 129.015 97.5584 129.091C97.3903 129.166 97.2084 129.206 97.0241 129.208C96.8354 129.208 96.6489 129.168 96.4762 129.093C96.3035 129.017 96.1482 128.906 96.0201 128.768C95.758 128.487 95.6123 128.116 95.6123 127.732C95.6123 127.348 95.758 126.977 96.0201 126.696C96.1476 126.557 96.3027 126.446 96.4756 126.37C96.6485 126.294 96.8353 126.255 97.0241 126.256C97.2085 126.257 97.3907 126.296 97.5588 126.372C97.727 126.448 97.8773 126.558 98.0001 126.696ZM97.9481 127.732C97.948 127.467 97.848 127.211 97.6681 127.016C97.5867 126.925 97.4875 126.853 97.3767 126.802C97.2658 126.752 97.1458 126.725 97.0241 126.724C96.8991 126.723 96.7754 126.749 96.661 126.799C96.5466 126.85 96.4441 126.924 96.3601 127.016C96.1787 127.21 96.0785 127.466 96.0801 127.732C96.0775 127.997 96.1779 128.252 96.3601 128.444C96.4439 128.537 96.5463 128.611 96.6607 128.662C96.7751 128.713 96.8988 128.74 97.0241 128.74C97.146 128.738 97.2662 128.71 97.377 128.659C97.4879 128.608 97.5869 128.535 97.6681 128.444C97.8427 128.248 97.9369 127.994 97.9321 127.732H97.9481Z" fill="white"/>
<path d="M99.0801 127.736C99.0866 127.455 99.1711 127.182 99.3241 126.946C99.4771 126.71 99.6926 126.522 99.9465 126.401C100.2 126.281 100.483 126.234 100.762 126.264C101.041 126.295 101.307 126.403 101.528 126.576C101.577 126.614 101.609 126.67 101.616 126.732C101.624 126.793 101.606 126.855 101.568 126.904C101.53 126.953 101.474 126.984 101.412 126.992C101.351 126.999 101.289 126.982 101.24 126.944C101.056 126.801 100.829 126.724 100.596 126.724C100.459 126.722 100.323 126.747 100.196 126.799C100.069 126.85 99.953 126.927 99.8561 127.024C99.7589 127.115 99.6815 127.224 99.6285 127.346C99.5755 127.468 99.5482 127.599 99.5482 127.732C99.5482 127.865 99.5755 127.996 99.6285 128.118C99.6815 128.24 99.7589 128.349 99.8561 128.44C99.953 128.537 100.069 128.614 100.196 128.665C100.323 128.717 100.459 128.742 100.596 128.74C100.793 128.739 100.987 128.685 101.156 128.584V128.024H100.568C100.507 128.022 100.448 127.996 100.405 127.952C100.362 127.908 100.337 127.85 100.336 127.788C100.337 127.727 100.362 127.669 100.405 127.626C100.449 127.584 100.507 127.56 100.568 127.56H101.368C101.399 127.559 101.43 127.564 101.458 127.575C101.487 127.586 101.514 127.602 101.536 127.624C101.558 127.645 101.576 127.67 101.589 127.699C101.601 127.727 101.608 127.757 101.608 127.788V128.696C101.61 128.719 101.61 128.741 101.608 128.764C101.594 128.805 101.565 128.841 101.528 128.864C101.307 129.037 101.043 129.145 100.765 129.176C100.486 129.208 100.204 129.161 99.9509 129.041C99.6974 128.922 99.4821 128.734 99.329 128.5C99.176 128.265 99.0912 127.992 99.0841 127.712L99.0801 127.736Z" fill="white"/>
<path d="M102.576 126.564C102.576 126.534 102.581 126.505 102.592 126.478C102.603 126.45 102.62 126.425 102.641 126.404C102.662 126.383 102.686 126.367 102.714 126.356C102.741 126.345 102.771 126.339 102.8 126.34C102.83 126.339 102.86 126.345 102.888 126.356C102.916 126.367 102.941 126.383 102.963 126.404C102.984 126.425 103.001 126.45 103.013 126.477C103.025 126.505 103.032 126.534 103.032 126.564V128.964C103.03 129.024 103.005 129.081 102.961 129.123C102.918 129.165 102.86 129.188 102.8 129.188C102.771 129.189 102.741 129.183 102.714 129.172C102.686 129.161 102.662 129.145 102.641 129.124C102.62 129.103 102.603 129.078 102.592 129.05C102.581 129.023 102.576 128.994 102.576 128.964V126.564Z" fill="white"/>
<path d="M104.248 128.984C104.248 129.043 104.224 129.1 104.182 129.142C104.14 129.184 104.083 129.208 104.024 129.208C103.964 129.208 103.907 129.184 103.865 129.142C103.823 129.1 103.8 129.043 103.8 128.984V126.584C103.799 126.548 103.807 126.511 103.823 126.479C103.839 126.446 103.863 126.418 103.892 126.396C103.94 126.363 103.999 126.35 104.057 126.359C104.115 126.368 104.168 126.398 104.204 126.444L105.528 128.276V126.6C105.528 126.571 105.534 126.542 105.545 126.516C105.556 126.489 105.572 126.465 105.592 126.444C105.613 126.424 105.637 126.408 105.664 126.397C105.69 126.386 105.719 126.38 105.748 126.38C105.807 126.38 105.863 126.403 105.905 126.444C105.947 126.485 105.971 126.541 105.972 126.6V129C105.971 129.059 105.947 129.115 105.905 129.157C105.863 129.199 105.807 129.223 105.748 129.224C105.715 129.224 105.683 129.216 105.654 129.201C105.625 129.187 105.6 129.166 105.58 129.14L105.56 129.116L104.248 127.296V128.984Z" fill="white"/>
<path d="M124.304 95.036H75.7002V103.356H124.304V95.036Z" fill="white"/>
<path d="M124.5 103.556H75.5V94.836H124.5V103.556ZM75.9 103.156H124.1V95.236H75.9V103.156Z" fill="#EBEBEB"/>
<path d="M80.7442 97.332H80.3442V100.888H80.7442V97.332Z" fill="#37474F"/>
<path d="M82.3241 98.908H78.7681V99.308H82.3241V98.908Z" fill="#37474F"/>
<path d="M81.6623 97.7074L79.147 100.221L79.4297 100.504L81.9451 97.9903L81.6623 97.7074Z" fill="#37474F"/>
<path d="M79.4269 97.7095L79.144 97.9923L81.6585 100.507L81.9414 100.224L79.4269 97.7095Z" fill="#37474F"/>
<path d="M86.776 97.332H86.376V100.888H86.776V97.332Z" fill="#37474F"/>
<path d="M88.3563 98.908H84.8003V99.308H88.3563V98.908Z" fill="#37474F"/>
<path d="M87.6931 97.7116L85.1777 100.225L85.4605 100.508L87.9758 97.9945L87.6931 97.7116Z" fill="#37474F"/>
<path d="M85.4601 97.7082L85.1772 97.9911L87.6917 100.506L87.9746 100.223L85.4601 97.7082Z" fill="#37474F"/>
<path d="M92.8082 97.332H92.4082V100.888H92.8082V97.332Z" fill="#37474F"/>
<path d="M94.388 98.908H90.832V99.308H94.388V98.908Z" fill="#37474F"/>
<path d="M93.7238 97.7118L91.2085 100.225L91.4912 100.508L94.0066 97.9948L93.7238 97.7118Z" fill="#37474F"/>
<path d="M91.4933 97.7069L91.2104 97.9898L93.7249 100.504L94.0078 100.221L91.4933 97.7069Z" fill="#37474F"/>
<path d="M98.8438 97.332H98.4438V100.888H98.8438V97.332Z" fill="#37474F"/>
<path d="M100.42 98.908H96.8643V99.308H100.42V98.908Z" fill="#37474F"/>
<path d="M99.7585 97.7121L97.2432 100.226L97.5259 100.509L100.041 97.995L99.7585 97.7121Z" fill="#37474F"/>
<path d="M97.5294 97.7108L97.2466 97.9937L99.7611 100.508L100.044 100.225L97.5294 97.7108Z" fill="#37474F"/>
<path d="M104.876 97.332H104.476V100.888H104.876V97.332Z" fill="#37474F"/>
<path d="M106.452 98.908H102.896V99.308H106.452V98.908Z" fill="#37474F"/>
<path d="M105.789 97.7123L103.274 100.226L103.557 100.509L106.072 97.9952L105.789 97.7123Z" fill="#37474F"/>
<path d="M103.559 97.7056L103.276 97.9884L105.79 100.503L106.073 100.22L103.559 97.7056Z" fill="#37474F"/>
<path d="M110.908 97.332H110.508V100.888H110.908V97.332Z" fill="#37474F"/>
<path d="M112.488 98.908H108.932V99.308H112.488V98.908Z" fill="#37474F"/>
<path d="M111.823 97.7097L109.308 100.223L109.59 100.506L112.106 97.9926L111.823 97.7097Z" fill="#37474F"/>
<path d="M109.592 97.7043L109.309 97.9872L111.824 100.502L112.106 100.219L109.592 97.7043Z" fill="#37474F"/>
<path d="M120.152 100.48C119.718 100.454 119.295 100.333 118.913 100.126C118.531 99.9183 118.199 99.6296 117.94 99.28L117.852 99.16L117.94 99.044C118.182 98.6826 118.509 98.3865 118.893 98.1817C119.277 97.9769 119.705 97.8697 120.14 97.8697C120.575 97.8697 121.003 97.9769 121.387 98.1817C121.771 98.3865 122.098 98.6826 122.34 99.044L122.424 99.16L122.34 99.28C122.084 99.6269 121.756 99.9139 121.378 100.121C121 100.328 120.582 100.451 120.152 100.48ZM118.36 99.176C118.566 99.4602 118.837 99.6916 119.15 99.8511C119.463 100.011 119.809 100.094 120.16 100.094C120.511 100.094 120.857 100.011 121.17 99.8511C121.483 99.6916 121.754 99.4602 121.96 99.176C121.754 98.8918 121.483 98.6604 121.17 98.5009C120.857 98.3414 120.511 98.2582 120.16 98.2582C119.809 98.2582 119.463 98.3414 119.15 98.5009C118.837 98.6604 118.566 98.8918 118.36 99.176Z" fill="#EBEBEB"/>
<path d="M120.148 100.076C120.645 100.076 121.048 99.6731 121.048 99.176C121.048 98.6789 120.645 98.276 120.148 98.276C119.651 98.276 119.248 98.6789 119.248 99.176C119.248 99.6731 119.651 100.076 120.148 100.076Z" fill="#EBEBEB"/>
<path d="M121.63 97.3712L118.434 100.567L118.716 100.85L121.913 97.654L121.63 97.3712Z" fill="#EBEBEB"/>
<path d="M86.9323 86.372H86.2923V87.496C86.2923 87.5724 86.262 87.6456 86.208 87.6996C86.1539 87.7536 86.0807 87.784 86.0043 87.784C85.9279 87.784 85.8547 87.7536 85.8007 87.6996C85.7467 87.6456 85.7163 87.5724 85.7163 87.496V84.436C85.7163 84.3984 85.7238 84.3611 85.7383 84.3264C85.7528 84.2917 85.7741 84.2602 85.8009 84.2337C85.8277 84.2073 85.8595 84.1865 85.8944 84.1725C85.9293 84.1584 85.9667 84.1515 86.0043 84.152H86.9323C87.0837 84.1429 87.2353 84.1649 87.3779 84.2165C87.5205 84.2682 87.651 84.3485 87.7613 84.4525C87.8717 84.5564 87.9597 84.6819 88.0198 84.8211C88.08 84.9603 88.111 85.1103 88.111 85.262C88.111 85.4136 88.08 85.5637 88.0198 85.7029C87.9597 85.8421 87.8717 85.9676 87.7613 86.0715C87.651 86.1755 87.5205 86.2558 87.3779 86.3074C87.2353 86.3591 87.0837 86.3811 86.9323 86.372ZM86.2923 85.796H86.9323C87.0063 85.8024 87.0809 85.7934 87.1512 85.7694C87.2215 85.7455 87.2861 85.7072 87.3409 85.657C87.3956 85.6068 87.4393 85.5458 87.4692 85.4778C87.4991 85.4098 87.5146 85.3363 87.5146 85.262C87.5146 85.1877 87.4991 85.1142 87.4692 85.0462C87.4393 84.9782 87.3956 84.9172 87.3409 84.867C87.2861 84.8168 87.2215 84.7785 87.1512 84.7545C87.0809 84.7306 87.0063 84.7216 86.9323 84.728H86.2923V85.796Z" fill="#FFB000"/>
<path d="M90.2319 86.924H88.9719L88.7159 87.6C88.6934 87.6527 88.6561 87.6978 88.6086 87.7297C88.561 87.7617 88.5052 87.7791 88.4479 87.78C88.4148 87.7861 88.3809 87.7861 88.3479 87.78C88.2761 87.753 88.2178 87.6988 88.1857 87.6292C88.1535 87.5596 88.15 87.4802 88.1759 87.408L89.3239 84.352C89.3469 84.298 89.3854 84.2521 89.4345 84.22C89.4837 84.188 89.5412 84.1713 89.5999 84.172C89.6582 84.1704 89.7156 84.1868 89.7643 84.219C89.813 84.2513 89.8505 84.2977 89.8719 84.352L91.0199 87.408C91.0458 87.4802 91.0423 87.5596 91.0101 87.6292C90.9779 87.6988 90.9196 87.753 90.8479 87.78C90.8149 87.787 90.7808 87.787 90.7479 87.78C90.6909 87.7799 90.6352 87.7627 90.5882 87.7306C90.5411 87.6985 90.5047 87.653 90.4839 87.6L90.2319 86.924ZM90.0199 86.356L89.5999 85.24L89.1999 86.356H90.0199Z" fill="#FFB000"/>
<path d="M91.5283 86.88C91.5508 86.8494 91.5796 86.8239 91.6126 86.8053C91.6457 86.7866 91.6824 86.7752 91.7202 86.7718C91.758 86.7684 91.7961 86.7731 91.832 86.7855C91.8679 86.798 91.9007 86.8179 91.9283 86.844C92.2071 87.0811 92.5551 87.2214 92.9203 87.244C93.151 87.2488 93.3775 87.1817 93.5683 87.052C93.6332 87.0129 93.6875 86.9586 93.7265 86.8938C93.7656 86.829 93.7882 86.7556 93.7923 86.68C93.7935 86.6217 93.7768 86.5644 93.7443 86.516C93.7041 86.4534 93.6509 86.4002 93.5883 86.36C93.3683 86.2349 93.1268 86.1522 92.8763 86.116C92.6447 86.0764 92.4189 86.0079 92.2043 85.912C92.0092 85.8276 91.8425 85.6888 91.7243 85.512C91.644 85.3853 91.6023 85.238 91.6043 85.088C91.6077 84.939 91.6456 84.7928 91.715 84.661C91.7844 84.5291 91.8835 84.4151 92.0043 84.328C92.2673 84.146 92.5806 84.0509 92.9003 84.056C93.3091 84.0735 93.7033 84.2128 94.0323 84.456C94.0613 84.4753 94.0862 84.5002 94.1056 84.5292C94.1249 84.5582 94.1383 84.5908 94.145 84.625C94.1517 84.6592 94.1516 84.6944 94.1446 84.7285C94.1376 84.7627 94.1239 84.7951 94.1043 84.824C94.086 84.8541 94.0618 84.8801 94.0331 84.9005C94.0044 84.921 93.9719 84.9354 93.9375 84.9428C93.9031 84.9503 93.8675 84.9507 93.8329 84.9441C93.7983 84.9374 93.7655 84.9237 93.7363 84.904C93.4979 84.7108 93.2063 84.595 92.9003 84.572C92.6933 84.5684 92.4905 84.63 92.3203 84.748C92.2629 84.782 92.2149 84.8298 92.1806 84.8871C92.1464 84.9444 92.127 85.0093 92.1243 85.076C92.1205 85.1266 92.1332 85.1771 92.1603 85.22C92.1977 85.274 92.2452 85.3202 92.3003 85.356C92.4996 85.4731 92.7196 85.5505 92.9483 85.584C93.1946 85.6277 93.4349 85.7002 93.6643 85.8C93.8747 85.8925 94.0548 86.0422 94.1843 86.232C94.2648 86.3647 94.3077 86.5168 94.3083 86.672C94.3025 86.8313 94.2589 86.987 94.181 87.1261C94.1031 87.2652 93.9932 87.3838 93.8603 87.472C93.5815 87.6703 93.2464 87.7741 92.9043 87.768C92.4165 87.7457 91.9496 87.5629 91.5763 87.248C91.5232 87.2041 91.4887 87.1417 91.4798 87.0734C91.4709 87.0051 91.4883 86.936 91.5283 86.88Z" fill="#FFB000"/>
<path d="M94.9399 86.88C94.962 86.8526 94.9893 86.8299 95.0203 86.8132C95.0513 86.7965 95.0853 86.7862 95.1203 86.7828C95.1554 86.7795 95.1907 86.7831 95.2243 86.7936C95.2579 86.8041 95.289 86.8213 95.3159 86.844C95.5946 87.0811 95.9427 87.2214 96.3079 87.244C96.5387 87.2493 96.7653 87.1821 96.9559 87.052C97.0208 87.0129 97.0751 86.9586 97.1141 86.8938C97.1532 86.829 97.1758 86.7556 97.1799 86.68C97.1811 86.6217 97.1644 86.5644 97.1319 86.516C97.0927 86.4526 97.0393 86.3992 96.9759 86.36C96.7574 86.2348 96.5172 86.152 96.2679 86.116C96.0374 86.077 95.8129 86.0084 95.5999 85.912C95.4042 85.8268 95.2365 85.6881 95.1159 85.512C95.037 85.3847 94.9954 85.2378 94.9959 85.088C94.9993 84.939 95.0372 84.7928 95.1066 84.661C95.176 84.5291 95.2751 84.4151 95.3959 84.328C95.6589 84.146 95.9722 84.0509 96.2919 84.056C96.7007 84.0735 97.0949 84.2128 97.4239 84.456C97.4529 84.4753 97.4778 84.5002 97.4972 84.5292C97.5165 84.5582 97.5299 84.5908 97.5366 84.625C97.5433 84.6592 97.5432 84.6944 97.5362 84.7285C97.5292 84.7627 97.5155 84.7951 97.4959 84.824C97.4776 84.8541 97.4534 84.8801 97.4247 84.9005C97.396 84.921 97.3635 84.9354 97.3291 84.9428C97.2947 84.9503 97.2591 84.9507 97.2245 84.9441C97.1899 84.9374 97.1571 84.9237 97.1279 84.904C96.8895 84.7108 96.5979 84.595 96.2919 84.572C96.0849 84.5684 95.882 84.63 95.7119 84.748C95.6545 84.782 95.6065 84.8298 95.5722 84.8871C95.538 84.9444 95.5186 85.0093 95.5159 85.076C95.5121 85.1266 95.5248 85.1771 95.5519 85.22C95.5893 85.274 95.6368 85.3202 95.6919 85.356C95.8915 85.4723 96.1114 85.5497 96.3399 85.584C96.5862 85.6277 96.8265 85.7002 97.0559 85.8C97.2656 85.8918 97.4446 86.0417 97.5719 86.232C97.6552 86.3635 97.6983 86.5164 97.6959 86.672C97.6909 86.831 97.648 86.9866 97.5708 87.1257C97.4936 87.2649 97.3843 87.3836 97.2519 87.472C96.972 87.6711 96.6354 87.7749 96.2919 87.768C95.8041 87.7457 95.3372 87.5629 94.9639 87.248C94.9153 87.2004 94.8859 87.1365 94.8814 87.0686C94.877 87.0006 94.8978 86.9335 94.9399 86.88Z" fill="#FFB000"/>
<path d="M103.168 84.58L101.896 87.6C101.891 87.618 101.881 87.6345 101.868 87.648C101.868 87.648 101.868 87.668 101.844 87.68L101.808 87.704C101.808 87.704 101.784 87.732 101.76 87.736H101.716H101.592H101.556C101.538 87.7311 101.523 87.7197 101.512 87.704L101.476 87.68C101.476 87.68 101.476 87.66 101.456 87.648C101.454 87.6321 101.454 87.6159 101.456 87.6L100.776 86L100.096 87.6C100.096 87.6 100.096 87.636 100.076 87.648L100.044 87.68C100.032 87.6857 100.021 87.6938 100.012 87.704L99.9723 87.736C99.9591 87.7332 99.9455 87.7332 99.9323 87.736H99.8043H99.7643C99.7461 87.7291 99.7296 87.7182 99.7163 87.704C99.7163 87.704 99.6963 87.704 99.6803 87.68L99.6563 87.648C99.6563 87.648 99.6563 87.616 99.6283 87.6L98.3523 84.576C98.3293 84.5077 98.3331 84.4332 98.3629 84.3676C98.3928 84.302 98.4465 84.2502 98.5132 84.2227C98.5798 84.1952 98.6544 84.1941 98.7219 84.2196C98.7893 84.2451 98.8445 84.2953 98.8763 84.36L99.8923 86.76L100.564 85.16C100.586 85.1074 100.624 85.0626 100.672 85.0313C100.719 84.9999 100.775 84.9835 100.832 84.984C100.89 84.9847 100.946 85.0016 100.994 85.0328C101.042 85.0639 101.08 85.108 101.104 85.16L101.772 86.76L102.784 84.36C102.814 84.2902 102.871 84.2351 102.941 84.2066C103.011 84.1781 103.09 84.1786 103.16 84.208C103.206 84.2587 103.232 84.3242 103.234 84.3925C103.235 84.4608 103.212 84.5274 103.168 84.58Z" fill="#FFB000"/>
<path d="M106.8 84.6C107.137 84.9546 107.325 85.4249 107.325 85.914C107.325 86.403 107.137 86.8734 106.8 87.228C106.642 87.4002 106.451 87.5381 106.238 87.6331C106.024 87.7281 105.794 87.7781 105.56 87.78C105.322 87.7787 105.086 87.7291 104.868 87.6342C104.649 87.5393 104.452 87.4011 104.288 87.228C103.959 86.8694 103.777 86.4005 103.777 85.914C103.777 85.4274 103.959 84.9586 104.288 84.6C104.451 84.4261 104.648 84.2874 104.867 84.1925C105.086 84.0975 105.322 84.0484 105.56 84.048C105.794 84.0489 106.025 84.0985 106.238 84.1935C106.452 84.2885 106.643 84.427 106.8 84.6ZM106.732 85.912C106.732 85.5772 106.607 85.2546 106.38 85.008C106.277 84.8926 106.151 84.8001 106.009 84.7367C105.868 84.6733 105.715 84.6404 105.56 84.64C105.402 84.6388 105.246 84.671 105.101 84.7344C104.956 84.7978 104.826 84.891 104.72 85.008C104.492 85.2537 104.367 85.5769 104.368 85.912C104.365 86.2474 104.491 86.5711 104.72 86.816C104.827 86.9329 104.956 87.0263 105.101 87.0903C105.246 87.1544 105.402 87.1876 105.56 87.188C105.715 87.1858 105.868 87.1517 106.009 87.0877C106.15 87.0237 106.277 86.9312 106.38 86.816C106.602 86.5676 106.722 86.2448 106.716 85.912H106.732Z" fill="#FFB000"/>
<path d="M110.732 87.352C110.745 87.3874 110.75 87.425 110.748 87.4625C110.745 87.4999 110.735 87.5366 110.718 87.5701C110.702 87.6037 110.678 87.6336 110.65 87.658C110.621 87.6823 110.588 87.7007 110.552 87.712C110.514 87.7183 110.475 87.7183 110.436 87.712C110.365 87.7136 110.296 87.6941 110.236 87.656C110.166 87.6115 110.108 87.5495 110.068 87.476C109.986 87.2788 109.949 87.0655 109.96 86.852C109.96 86.7729 109.937 86.6955 109.896 86.628C109.858 86.5662 109.804 86.5152 109.74 86.48C109.652 86.423 109.554 86.381 109.452 86.356H108.84V87.48C108.84 87.5178 108.832 87.5552 108.817 87.5899C108.802 87.6246 108.78 87.6561 108.753 87.6825C108.726 87.7088 108.694 87.7296 108.659 87.7436C108.624 87.7576 108.586 87.7645 108.548 87.764C108.473 87.764 108.401 87.7341 108.347 87.6808C108.294 87.6275 108.264 87.5553 108.264 87.48V84.42C108.264 84.3825 108.271 84.3454 108.285 84.3107C108.299 84.276 108.32 84.2444 108.346 84.218C108.373 84.1915 108.404 84.1706 108.439 84.1565C108.474 84.1424 108.511 84.1354 108.548 84.136H109.476C109.705 84.1351 109.928 84.2049 110.116 84.336C110.303 84.4671 110.445 84.653 110.523 84.8682C110.601 85.0834 110.61 85.3173 110.549 85.5379C110.488 85.7584 110.361 85.9548 110.184 86.1C110.253 86.155 110.314 86.2197 110.364 86.292C110.477 86.457 110.537 86.6522 110.536 86.852C110.529 86.9551 110.535 87.0587 110.556 87.16C110.6 87.174 110.639 87.1991 110.67 87.2328C110.7 87.2664 110.722 87.3075 110.732 87.352ZM110 85.264C110.001 85.1935 109.987 85.1235 109.96 85.0582C109.934 84.993 109.894 84.9337 109.844 84.8838C109.795 84.8339 109.735 84.7945 109.67 84.7677C109.605 84.741 109.535 84.7275 109.464 84.728H108.828V85.796H109.464C109.606 85.796 109.741 85.7401 109.842 85.6404C109.942 85.5408 109.999 85.4054 110 85.264Z" fill="#FFB000"/>
<path d="M111.576 87.496V84.436C111.576 84.3986 111.583 84.3614 111.597 84.3267C111.611 84.292 111.632 84.2605 111.658 84.234C111.685 84.2075 111.716 84.1866 111.751 84.1725C111.786 84.1584 111.823 84.1515 111.86 84.152H112.472C112.939 84.1739 113.379 84.3746 113.701 84.7124C114.023 85.0502 114.203 85.4991 114.203 85.966C114.203 86.4329 114.023 86.8818 113.701 87.2196C113.379 87.5574 112.939 87.7581 112.472 87.78H111.86C111.785 87.78 111.713 87.7501 111.659 87.6968C111.606 87.6436 111.576 87.5713 111.576 87.496ZM112.152 87.204H112.472C112.788 87.186 113.086 87.0478 113.303 86.8176C113.521 86.5874 113.642 86.2827 113.642 85.966C113.642 85.6493 113.521 85.3446 113.303 85.1144C113.086 84.8842 112.788 84.746 112.472 84.728H112.152V87.204Z" fill="#FFB000"/>
<path d="M107.103 52.6231V60.3484H104.92V52.6231C104.92 49.6876 102.691 47.301 99.9543 47.301C97.2173 47.301 94.988 49.6876 94.988 52.6231V60.3484H92.8057V52.6231C92.8057 48.4184 96.0144 45 99.9598 45C103.905 45 107.103 48.4184 107.103 52.6231Z" fill="#C7C7C7"/>
<path d="M92.7949 54.6291L94.9773 54.7173V60.343H92.7949V54.6291Z" fill="#A6A6A6"/>
<path d="M107.103 55.2108V60.3425H104.921V55.1225L107.103 55.2108Z" fill="#A6A6A6"/>
<path d="M109.898 55.9476H90V73.9998H109.898V55.9476Z" fill="#FFB000"/>
<path opacity="0.1" d="M109.898 55.9476H99.9492V73.9998H109.898V55.9476Z" fill="black"/>
<path d="M100.79 65.6346L101.618 69.5855H98.0894L98.9171 65.6346C98.5907 65.4316 98.3393 65.1278 98.201 64.7692C98.0627 64.4106 98.045 64.0167 98.1505 63.6471C98.256 63.2775 98.4791 62.9524 98.786 62.7209C99.0928 62.4894 99.4667 62.3642 99.851 62.3642C100.235 62.3642 100.609 62.4894 100.916 62.7209C101.223 62.9524 101.446 63.2775 101.552 63.6471C101.657 64.0167 101.639 64.4106 101.501 64.7692C101.363 65.1278 101.111 65.4316 100.785 65.6346H100.79Z" fill="white"/>
<path d="M168.744 34.604C168.744 34.604 165.692 59.028 160.676 64.524C154.676 71.116 150.276 70.152 147.876 73.552C145.444 70.148 141.076 71.116 135.076 64.52C130.06 59.024 127.016 34.6 127.016 34.6C140.216 28.2 147.896 21 147.896 21C148.096 21.228 155.736 28.292 168.744 34.604Z" fill="#37474F"/>
<path d="M147.86 21.008V73.552C145.428 70.148 141.06 71.116 135.06 64.52C130.044 59.024 127 34.6 127 34.6C140.2 28.2 147.88 21 147.88 21L147.86 21.008Z" fill="#455A64"/>
<path d="M165.52 36.572C165.52 36.572 162.944 57.204 158.72 61.848C153.628 67.424 149.92 66.604 147.884 69.476C145.832 66.604 142.14 67.424 137.048 61.848C132.816 57.204 130.248 36.572 130.248 36.572C141.408 31.152 147.888 25.08 147.888 25.08C147.888 25.08 154.34 31.152 165.52 36.572Z" fill="#455A64"/>
<path d="M130.22 36.572C130.22 36.572 132.796 57.2 137.02 61.848C142.104 67.42 145.792 66.608 147.848 69.472V25.072C147.664 25.292 141.208 31.236 130.22 36.572Z" fill="#37474F"/>
<path d="M151.455 42.2142V46.4849H150.249V42.2142C150.249 40.5914 149.016 39.272 147.503 39.272C145.99 39.272 144.758 40.5914 144.758 42.2142V46.4849H143.551V42.2142C143.551 39.8898 145.325 38 147.506 38C149.687 38 151.455 39.8898 151.455 42.2142Z" fill="#C7C7C7"/>
<path d="M143.545 43.323L144.751 43.3718V46.4818H143.545V43.323Z" fill="#A6A6A6"/>
<path d="M151.455 43.6447V46.4816H150.249V43.5959L151.455 43.6447Z" fill="#A6A6A6"/>
<path d="M153 44.0522H142V54.0318H153V44.0522Z" fill="#FFB000"/>
<path opacity="0.1" d="M153 44.0522H147.5V54.0318H153V44.0522Z" fill="black"/>
<path d="M147.965 49.4072L148.423 51.5914H146.472L146.93 49.4072C146.749 49.295 146.61 49.1271 146.534 48.9289C146.457 48.7306 146.447 48.5129 146.506 48.3085C146.564 48.1042 146.688 47.9245 146.857 47.7965C147.027 47.6686 147.233 47.5993 147.446 47.5993C147.658 47.5993 147.865 47.6686 148.035 47.7965C148.204 47.9245 148.328 48.1042 148.386 48.3085C148.444 48.5129 148.435 48.7306 148.358 48.9289C148.282 49.1271 148.143 49.295 147.962 49.4072H147.965Z" fill="white"/>
</svg>
