<svg width="18" height="18" viewBox="0 0 18 18" fill="none" xmlns="http://www.w3.org/2000/svg">
<path fill-rule="evenodd" clip-rule="evenodd" d="M1.44743 5.89443C0.953454 6.14142 0.352781 5.94119 0.105792 5.44721C-0.141197 4.95323 0.059027 4.35256 0.553005 4.10557L8.55301 0.105573C8.83453 -0.0351909 9.1659 -0.0351909 9.44743 0.105573L17.4474 4.10557C17.9414 4.35256 18.1416 4.95323 17.8946 5.44721C17.6477 5.94119 17.047 6.14142 16.553 5.89443L9.00022 2.11803L1.44743 5.89443ZM8.31876 4.16494C8.74685 3.94661 9.25364 3.94661 9.68173 4.16494L15.1817 6.96994C15.684 7.22612 16.0002 7.74234 16.0002 8.3062V14.9999C16.0002 16.6568 14.6571 17.9999 13.0002 17.9999H12.1398C11.5104 17.9999 11.0002 17.4897 11.0002 16.8604V13.9999C11.0002 12.8954 10.1048 11.9999 9.00024 11.9999C7.89567 11.9999 7.00024 12.8954 7.00024 13.9999V16.8604C7.00024 17.4897 6.49006 17.9999 5.86071 17.9999H5.00024C3.34339 17.9999 2.00024 16.6568 2.00024 14.9999V8.3062C2.00024 7.74234 2.31645 7.22612 2.81876 6.96994L8.31876 4.16494Z" fill="#B5BEC8"/>
</svg>
