<svg width="19" height="18" viewBox="0 0 19 18" fill="none" xmlns="http://www.w3.org/2000/svg">
<path fill-rule="evenodd" clip-rule="evenodd" d="M5.04743 1.19506C6.40269 0.416884 7.93722 0.00501861 9.5 0C11.8869 0 14.1761 0.948212 15.864 2.63604C17.5518 4.32387 18.5 6.61305 18.5 9C18.5 11.3869 17.5518 13.6761 15.864 15.364C14.1761 17.0518 11.8869 18 9.5 18V16C11.0111 16 12.4817 15.511 13.6919 14.6061C14.9021 13.7012 15.787 12.429 16.2144 10.9795C16.6417 9.5301 16.5885 7.98129 16.0628 6.56458C15.537 5.14786 14.5669 3.93931 13.2975 3.11955C12.0281 2.29978 10.5274 1.91282 9.01986 2.01649C7.5123 2.12016 6.07876 2.7089 4.93348 3.69471C3.7882 4.68053 2.99269 6.01049 2.66582 7.48584C2.33895 8.96119 2.49828 10.5027 3.12 11.88L5.5 9.5V15H0L1.65 13.35C0.894647 11.9819 0.508556 10.4407 0.529728 8.87803C0.5509 7.31539 0.978605 5.78519 1.77075 4.43804C2.56289 3.0909 3.69217 1.97323 5.04743 1.19506ZM8.5 10V5H10.5V9.11L12.45 11.06L11.04 12.47L8.56 10H8.5Z" fill="black"/>
</svg>
