<svg width="16" height="23" viewBox="0 0 16 23" fill="none" xmlns="http://www.w3.org/2000/svg">
<path d="M6.10219 22.3162H9.58906C10.0705 22.3162 10.4608 21.9259 10.4608 21.4445C10.4608 20.963 10.0705 20.5728 9.58906 20.5728H6.10219C5.62074 20.5728 5.23047 20.963 5.23047 21.4445C5.23047 21.9259 5.62074 22.3162 6.10219 22.3162Z" fill="#B5BEC8"/>
<path d="M7.84546 0C7.36401 0 6.97374 0.390268 6.97374 0.871718V1.80598C4.02058 2.23025 1.74344 4.77675 1.74344 7.84546V13.2046C1.74344 13.5118 1.60505 13.7913 1.39915 13.9001C0.536107 14.3558 0 15.2424 0 16.214C0 17.656 1.17316 18.8291 2.61515 18.8291H13.0758C14.5178 18.8291 15.6909 17.656 15.6909 16.214C15.6909 15.2424 15.1548 14.3558 14.2918 13.9001C14.0858 13.7913 13.9475 13.5118 13.9475 13.2046V7.84546C13.9475 4.77675 11.6703 2.23025 8.71718 1.80598V0.871718C8.71718 0.390268 8.32691 0 7.84546 0V0ZM12.2041 7.84546V13.2046C12.2041 14.1697 12.6921 15.0269 13.4777 15.4417C13.7675 15.5947 13.9475 15.8906 13.9475 16.214C13.9475 16.6946 13.5564 17.0857 13.0758 17.0857H2.61515C2.13449 17.0857 1.74344 16.6946 1.74344 16.214C1.74344 15.8906 1.92345 15.5947 2.21321 15.4417C2.99884 15.0269 3.48687 14.1697 3.48687 13.2046V7.84546C3.48687 5.44214 5.44214 3.48687 7.84546 3.48687C10.2488 3.48687 12.2041 5.44214 12.2041 7.84546Z" fill="#B5BEC8"/>
</svg>
