<svg width="18" height="21" viewBox="0 0 18 21" fill="none" xmlns="http://www.w3.org/2000/svg">
<path fill-rule="evenodd" clip-rule="evenodd" d="M12.6697 9.18789C12.7295 9.2476 12.777 9.31854 12.8095 9.39664C12.8419 9.47474 12.8585 9.55847 12.8585 9.64303C12.8585 9.72759 12.8419 9.81131 12.8095 9.88942C12.777 9.96752 12.7295 10.0385 12.6697 10.0982L8.81254 13.9553C8.75282 14.0152 8.68188 14.0627 8.60378 14.0951C8.52568 14.1275 8.44196 14.1442 8.3574 14.1442C8.27284 14.1442 8.18911 14.1275 8.11101 14.0951C8.03291 14.0627 7.96197 14.0152 7.90225 13.9553L5.97368 12.0267C5.91391 11.967 5.8665 11.896 5.83415 11.8179C5.80181 11.7398 5.78516 11.6561 5.78516 11.5716C5.78516 11.4871 5.80181 11.4034 5.83415 11.3253C5.8665 11.2472 5.91391 11.1762 5.97368 11.1165C6.09439 10.9957 6.25811 10.9279 6.42883 10.9279C6.51335 10.9279 6.59705 10.9446 6.67515 10.9769C6.75324 11.0093 6.8242 11.0567 6.88397 11.1165L8.3574 12.5912L11.7594 9.18789C11.8191 9.12802 11.8901 9.08052 11.9682 9.04811C12.0463 9.0157 12.13 8.99902 12.2145 8.99902C12.2991 8.99902 12.3828 9.0157 12.4609 9.04811C12.539 9.08052 12.61 9.12802 12.6697 9.18789Z" fill="black"/>
<path d="M3.85714 1.92859H2.57143C1.88944 1.92859 1.23539 2.19951 0.753154 2.68174C0.270918 3.16398 0 3.81803 0 4.50002V18C0 18.682 0.270918 19.3361 0.753154 19.8183C1.23539 20.3005 1.88944 20.5714 2.57143 20.5714H15.4286C16.1106 20.5714 16.7646 20.3005 17.2468 19.8183C17.7291 19.3361 18 18.682 18 18V4.50002C18 3.81803 17.7291 3.16398 17.2468 2.68174C16.7646 2.19951 16.1106 1.92859 15.4286 1.92859H14.1429V3.2143H15.4286C15.7696 3.2143 16.0966 3.34976 16.3377 3.59088C16.5788 3.832 16.7143 4.15902 16.7143 4.50002V18C16.7143 18.341 16.5788 18.668 16.3377 18.9092C16.0966 19.1503 15.7696 19.2857 15.4286 19.2857H2.57143C2.23044 19.2857 1.90341 19.1503 1.66229 18.9092C1.42117 18.668 1.28571 18.341 1.28571 18V4.50002C1.28571 4.15902 1.42117 3.832 1.66229 3.59088C1.90341 3.34976 2.23044 3.2143 2.57143 3.2143H3.85714V1.92859Z" fill="black"/>
<path d="M10.9283 1.28571C11.0988 1.28571 11.2623 1.35344 11.3829 1.474C11.5034 1.59456 11.5711 1.75808 11.5711 1.92857V3.21429C11.5711 3.38478 11.5034 3.5483 11.3829 3.66885C11.2623 3.78941 11.0988 3.85714 10.9283 3.85714H7.07115C6.90065 3.85714 6.73714 3.78941 6.61658 3.66885C6.49602 3.5483 6.42829 3.38478 6.42829 3.21429V1.92857C6.42829 1.75808 6.49602 1.59456 6.61658 1.474C6.73714 1.35344 6.90065 1.28571 7.07115 1.28571H10.9283ZM7.07115 0C6.55966 0 6.06912 0.203188 5.70744 0.564865C5.34577 0.926543 5.14258 1.41708 5.14258 1.92857V3.21429C5.14258 3.72577 5.34577 4.21631 5.70744 4.57799C6.06912 4.93967 6.55966 5.14286 7.07115 5.14286H10.9283C11.4398 5.14286 11.9303 4.93967 12.292 4.57799C12.6537 4.21631 12.8569 3.72577 12.8569 3.21429V1.92857C12.8569 1.41708 12.6537 0.926543 12.292 0.564865C11.9303 0.203188 11.4398 0 10.9283 0L7.07115 0Z" fill="black"/>
</svg>
