<svg width="16" height="20" viewBox="0 0 16 20" fill="none" xmlns="http://www.w3.org/2000/svg">
<path fill-rule="evenodd" clip-rule="evenodd" d="M5 5C5 3.34315 6.34315 2 8 2C9.65685 2 11 3.34315 11 5C11 6.65685 9.65685 8 8 8C6.34315 8 5 6.65685 5 5ZM8 0C5.23858 0 3 2.23858 3 5C3 7.76142 5.23858 10 8 10C10.7614 10 13 7.76142 13 5C13 2.23858 10.7614 0 8 0ZM2 17C2 15.3431 3.34315 14 5 14H11C12.6569 14 14 15.3431 14 17C14 17.5523 13.5523 18 13 18H3C2.44772 18 2 17.5523 2 17ZM5 12C2.23858 12 0 14.2386 0 17C0 18.6569 1.34315 20 3 20H13C14.6569 20 16 18.6569 16 17C16 14.2386 13.7614 12 11 12H5Z" fill="#B5BEC8"/>
</svg>
