<svg width="49" height="49" viewBox="0 0 49 49" fill="none" xmlns="http://www.w3.org/2000/svg">
<rect width="49" height="49" rx="24.5" fill="white"/>
<path d="M15.8165 14.33L27.4447 11.156L26.8289 9.91124C26.426 9.10218 25.4434 8.76808 24.6343 9.17097L14.2246 14.33H15.8165Z" fill="#FD9E24"/>
<path d="M31.0539 11.2477C30.9098 11.2477 30.7656 11.2673 30.6215 11.3066L27.8897 12.0535L19.5469 14.33H29.0165H33.1437L32.6327 12.4564C32.4362 11.7259 31.7745 11.2477 31.0539 11.2477Z" fill="#FD9E24"/>
<path d="M34.8506 15.4763H34.4772H33.9695H33.4618H29.5868H15.348H13.4809H11.9087H11.6172H10.641C10.1235 15.4763 9.66166 15.7154 9.36031 16.0921C9.22274 16.2657 9.11792 16.4655 9.05896 16.685C9.02293 16.8226 9 16.9667 9 17.1141V17.3106V19.1777V35.3622C9 36.2662 9.73372 36.9999 10.6378 36.9999H34.8473C35.7514 36.9999 36.4851 36.2662 36.4851 35.3622V30.7928H26.7666C25.2303 30.7928 23.9824 29.5448 23.9824 28.0086V26.5084V26.0007V25.4929V24.3662C23.9824 23.6128 24.2837 22.9282 24.7718 22.4271C25.2041 21.9816 25.7839 21.6802 26.4325 21.6049C26.5406 21.5918 26.6519 21.5852 26.7633 21.5852H35.1225H35.6302H36.1379H36.4851V17.1141C36.4884 16.21 35.7547 15.4763 34.8506 15.4763Z" fill="#FD9E24"/>
<path d="M37.6349 23.1507C37.4712 23.0001 37.2779 22.8854 37.0617 22.8101C36.8946 22.7544 36.7178 22.7217 36.5311 22.7217H36.4885H36.4557H35.948H34.117H26.7667C25.8626 22.7217 25.1289 23.4554 25.1289 24.3595V25.175V25.6827V26.1905V28.0051C25.1289 28.9092 25.8626 29.6429 26.7667 29.6429H36.4885H36.5311C36.7178 29.6429 36.8947 29.6101 37.0617 29.5544C37.2779 29.4824 37.4712 29.3645 37.6349 29.2138C37.9625 28.9157 38.1689 28.4833 38.1689 28.0051V24.3595C38.1689 23.8812 37.9625 23.4488 37.6349 23.1507ZM30.1864 26.5082C30.1864 26.9602 29.8195 27.3271 29.3675 27.3271H28.8237C28.3717 27.3271 28.0048 26.9602 28.0048 26.5082V25.9644C28.0048 25.7024 28.126 25.4698 28.3193 25.3224C28.4601 25.2143 28.6338 25.1456 28.8237 25.1456H28.9613H29.3675C29.8195 25.1456 30.1864 25.5124 30.1864 25.9644V26.5082Z" fill="#FD9E24"/>
</svg>
